<svg width="45" height="45" viewBox="0 0 45 45" fill="none" xmlns="http://www.w3.org/2000/svg">
<rect width="45" height="45" rx="5" fill="#BC2429" style="fill:#BC2429;fill:color(display-p3 0.7373 0.1412 0.1608);fill-opacity:1;"/>
<path fill-rule="evenodd" clip-rule="evenodd" d="M22.5 9C22.7984 9 23.0845 9.11853 23.2955 9.32951C23.5065 9.54048 23.625 9.82663 23.625 10.125V21.375H34.875C35.1734 21.375 35.4595 21.4935 35.6705 21.7045C35.8815 21.9155 36 22.2016 36 22.5C36 22.7984 35.8815 23.0845 35.6705 23.2955C35.4595 23.5065 35.1734 23.625 34.875 23.625H23.625V34.875C23.625 35.1734 23.5065 35.4595 23.2955 35.6705C23.0845 35.8815 22.7984 36 22.5 36C22.2016 36 21.9155 35.8815 21.7045 35.6705C21.4935 35.4595 21.375 35.1734 21.375 34.875V23.625H10.125C9.82663 23.625 9.54048 23.5065 9.32951 23.2955C9.11853 23.0845 9 22.7984 9 22.5C9 22.2016 9.11853 21.9155 9.32951 21.7045C9.54048 21.4935 9.82663 21.375 10.125 21.375H21.375V10.125C21.375 9.82663 21.4935 9.54048 21.7045 9.32951C21.9155 9.11853 22.2016 9 22.5 9Z" fill="white" style="fill:white;fill-opacity:1;"/>
</svg>
