<svg width="16" height="16" viewBox="0 0 16 16" fill="none" xmlns="http://www.w3.org/2000/svg">
<g id="info_outline_24px">
<path id="icon/action/info_outline_24px" fill-rule="evenodd" clip-rule="evenodd" d="M8.00065 1.33203C4.32065 1.33203 1.33398 4.3187 1.33398 7.9987C1.33398 11.6787 4.32065 14.6654 8.00065 14.6654C11.6807 14.6654 14.6673 11.6787 14.6673 7.9987C14.6673 4.3187 11.6807 1.33203 8.00065 1.33203ZM7.33398 4.66536V5.9987H8.66732V4.66536H7.33398ZM8.66732 10.6654C8.66732 11.032 8.36732 11.332 8.00065 11.332C7.63398 11.332 7.33398 11.032 7.33398 10.6654V7.9987C7.33398 7.63203 7.63398 7.33203 8.00065 7.33203C8.36732 7.33203 8.66732 7.63203 8.66732 7.9987V10.6654ZM2.66732 7.9987C2.66732 10.9387 5.06065 13.332 8.00065 13.332C10.9407 13.332 13.334 10.9387 13.334 7.9987C13.334 5.0587 10.9407 2.66536 8.00065 2.66536C5.06065 2.66536 2.66732 5.0587 2.66732 7.9987Z" fill="black" fill-opacity="0.54" style="fill:black;fill-opacity:0.54;"/>
</g>
</svg>
