<svg width="20" height="20" viewBox="0 0 20 20" fill="none" xmlns="http://www.w3.org/2000/svg">
<g id="close_24px">
<path id="icon/navigation/close_24px" d="M15.2496 4.75988C15.0939 4.60384 14.8825 4.51615 14.6621 4.51615C14.4417 4.51615 14.2303 4.60384 14.0746 4.75988L9.99961 8.82655L5.92461 4.75155C5.76892 4.59551 5.55754 4.50781 5.33711 4.50781C5.11668 4.50781 4.9053 4.59551 4.74961 4.75155C4.42461 5.07655 4.42461 5.60155 4.74961 5.92655L8.82461 10.0016L4.74961 14.0766C4.42461 14.4016 4.42461 14.9266 4.74961 15.2516C5.07461 15.5766 5.59961 15.5766 5.92461 15.2516L9.99961 11.1766L14.0746 15.2516C14.3996 15.5766 14.9246 15.5766 15.2496 15.2516C15.5746 14.9266 15.5746 14.4016 15.2496 14.0766L11.1746 10.0016L15.2496 5.92655C15.5663 5.60988 15.5663 5.07655 15.2496 4.75988Z" fill="black" fill-opacity="0.54" style="fill:black;fill-opacity:0.54;"/>
</g>
</svg>
