<svg width="24" height="24" viewBox="0 0 24 24" fill="none" xmlns="http://www.w3.org/2000/svg">
<g id="style_24px">
<path id="icon/image/style_24px" fill-rule="evenodd" clip-rule="evenodd" d="M17.3316 3.73L22.2916 15.7C22.7116 16.71 22.2216 17.88 21.2016 18.3L13.8416 21.35C13.5916 21.45 13.3316 21.5 13.0716 21.5C12.2916 21.49 11.5516 21.03 11.2416 20.27L6.28157 8.3C6.17157 8.04 6.12157 7.77 6.13157 7.5C6.15157 6.73 6.61157 6.01 7.36157 5.7L14.7316 2.65C14.9916 2.54 15.2616 2.5 15.5216 2.5C16.2916 2.52 17.0216 2.98 17.3316 3.73ZM4.13157 19.96L2.79157 19.4C1.78157 18.98 1.29157 17.81 1.70157 16.79L4.13157 10.93V19.96ZM8.14157 8.5C7.59157 8.5 7.14157 8.05 7.14157 7.5C7.14157 6.95 7.59157 6.5 8.14157 6.5C8.69157 6.5 9.14157 6.95 9.14157 7.5C9.14157 8.05 8.69157 8.5 8.14157 8.5ZM8.14157 21.5C7.04157 21.5 6.14157 20.6 6.14157 19.5V13.16L9.59157 21.5H8.14157Z" fill="black" fill-opacity="0.54" style="fill:black;fill-opacity:0.54;"/>
</g>
</svg>
