<?xml version="1.0" encoding="utf-8"?>
<!-- Generator: Adobe Illustrator 27.3.1, SVG Export Plug-In . SVG Version: 6.00 Build 0)  -->
<svg version="1.1" id="Layer_1" xmlns="http://www.w3.org/2000/svg" xmlns:xlink="http://www.w3.org/1999/xlink" x="0px" y="0px"
	 viewBox="0 0 560 240" style="enable-background:new 0 0 560 240;" xml:space="preserve">
<style type="text/css">
	.st0{fill:#C2282E;}
	.st1{fill:#080A0B;}
</style>
<g>
	<path class="st0" d="M67.54,66.15h6.39c7.21,0.54,14.61,2.45,20.33,7.08c4.29,3.38,7.22,8.22,8.87,13.38
		c6.99,2.13,13.05,7.1,16.4,13.6c2.88,5.42,3.91,11.62,3.93,17.7c0.4,6.96-0.7,14.12-3.88,20.37c-3.31,6.71-9.38,11.8-16.34,14.42
		c-1.64,5.53-5.15,10.41-9.79,13.81c-6.74,4.96-15.31,6.66-23.54,6.65c-8.53-0.04-17.4-2.19-24.14-7.65
		c-4.05-3.23-6.85-7.8-8.49-12.67c-8.78-2.98-15.64-10.47-18.42-19.24c-3.29-10.48-3.09-22.34,1.86-32.27
		c3.32-6.82,9.42-12.09,16.53-14.66c1.54-4.93,4.42-9.43,8.34-12.79C51.61,68.57,59.72,66.53,67.54,66.15 M51.05,84
		c-2.72,3.38-3.72,7.76-3.9,12.01c-5.51,0.24-11.24,2.3-14.75,6.73c-2.69,3.28-3.72,7.54-4.02,11.69c6.01-0.1,12.02-0.03,18.04-0.05
		c6.33-6.34,12.67-12.68,18.99-19.03c-0.02-6.07,0-12.13-0.01-18.2C60,77.53,54.44,79.63,51.05,84 M76.01,77.34
		c0.07,6,0.03,12.01,0.04,18.01c6.37,6.36,12.7,12.74,19.07,19.09c6.03-0.04,12.06,0.05,18.09-0.05c-0.4-5.03-2.17-10.18-5.99-13.64
		c-3.44-3.23-8.23-4.47-12.83-4.65c-0.26-5.25-2.09-10.68-6.1-14.25C84.97,78.82,80.43,77.54,76.01,77.34 M56.55,119.74
		c4.8,4.75,9.53,9.57,14.32,14.32c4.76-4.8,9.56-9.57,14.32-14.36c-4.77-4.78-9.54-9.55-14.3-14.34
		C66.1,110.15,61.32,114.93,56.55,119.74 M28.38,124.98c0.39,5.24,2.33,10.62,6.46,14.07c3.4,2.95,7.96,4.05,12.36,4.23
		c0.25,5.22,2.06,10.63,6.04,14.19c3.31,3.08,7.88,4.34,12.3,4.58c0.05-6.03-0.05-12.04-0.04-18.07
		c-6.34-6.34-12.65-12.71-19.01-19.04C40.45,124.99,34.41,124.91,28.38,124.98 M95.18,125.02c-6.34,6.35-12.68,12.71-19.02,19.06
		c0,6.04-0.01,12.07,0,18.11c5.25-0.26,10.62-2.32,14.05-6.42c2.92-3.41,4.07-7.97,4.19-12.37c5.09-0.27,10.34-1.98,13.91-5.76
		c3.24-3.36,4.65-8.08,4.82-12.67C107.15,124.96,101.17,125.05,95.18,125.02"/>
	<path class="st1" d="M505.29,78.25c3.74-6,10.36-10.03,17.39-10.67c6.42-0.57,13.42-0.21,18.91,3.52c4.01,2.69,6.49,7.1,7.61,11.72
		c-3.48,0.68-6.97,1.34-10.46,1.97c-1.15-3.2-3.33-6.17-6.6-7.4c-5.53-2.02-12.48-0.85-16.42,3.72c-3.26,3.79-3.95,9.03-3.86,13.85
		c0.15,4.9,1.18,10.21,4.82,13.78c3.57,3.65,9.14,4.69,13.99,3.5c2.98-0.8,5.98-1.99,8.33-4.03c0.29-2.2,0.04-4.43,0.05-6.64
		c-4,0-7.99,0-11.99,0c0.01-2.97,0.01-5.94,0-8.92h22.7v21.06c-3.82,3.49-8.71,5.58-13.64,6.96c-8.43,2.18-18.11,1.42-25.28-3.87
		c-5.4-3.93-8.36-10.38-9.42-16.83C500.29,92.59,501.27,84.65,505.29,78.25"/>
	<path class="st1" d="M150.99,68.21h41.42c0.01,2.99,0,5.97,0.02,8.95c-5.16,0.01-10.32,0-15.48,0.01
		c0.01,14.58-0.02,29.16,0.02,43.73c-3.51,0.01-7.02,0.01-10.53,0c0.03-14.58,0-29.16,0.02-43.73c-5.16-0.02-10.32,0.01-15.48-0.01
		C151,74.17,150.98,71.19,150.99,68.21"/>
	<path class="st1" d="M199.25,68.21h10.53c0.01,6.92,0.01,13.84,0,20.75c6.88,0,13.77,0.02,20.66-0.01c0-6.91-0.01-13.83,0-20.74
		h10.49c0.02,17.57-0.01,35.13,0.02,52.7c-3.51,0.01-7.02,0.01-10.53,0c0.03-7.66,0-15.32,0.02-22.98c-6.89-0.02-13.77,0-20.66,0
		c0.02,7.66-0.01,15.32,0.02,22.99c-3.52,0.01-7.04,0.01-10.56,0C199.26,103.34,199.24,85.77,199.25,68.21"/>
	<path class="st1" d="M246.49,120.89c6.85-17.56,13.51-35.19,20.43-52.72c3.68,0.06,7.36,0.02,11.05,0.03
		c7,17.56,13.93,35.14,20.94,52.7c-3.83,0.01-7.67,0-11.51,0c-1.52-3.98-3.03-7.96-4.55-11.94c-6.95-0.01-13.9-0.01-20.85,0
		c-1.41,3.98-2.86,7.95-4.28,11.93C253.98,120.91,250.24,120.92,246.49,120.89 M272.32,80.63c-2.43,6.44-4.66,12.95-7.06,19.4
		c4.74,0.01,9.47,0.02,14.21,0C277.05,93.58,274.69,87.1,272.32,80.63"/>
	<path class="st1" d="M304.1,68.21h10.61c0,17.57,0.02,35.14-0.01,52.71c-3.54-0.01-7.08,0-10.62-0.01
		C304.12,103.34,304.09,85.77,304.1,68.21"/>
	<path class="st1" d="M344.97,68.21c3.52-0.01,7.04,0,10.56,0c0,6.92,0,13.84,0,20.76c6.87,0,13.74,0,20.6,0c0-6.92,0-13.84,0-20.76
		h10.57c0,17.57,0,35.14,0,52.7c-3.53,0-7.06,0.01-10.58-0.01c0.02-7.66,0-15.32,0.02-22.98c-6.87-0.01-13.74-0.01-20.61,0
		c0.02,7.66-0.01,15.32,0.02,22.98c-3.53,0.01-7.05,0.02-10.58,0C344.97,103.33,344.97,85.77,344.97,68.21"/>
	<path class="st1" d="M397.49,68.21h10.55c0.02,10.35-0.03,20.69,0.02,31.03c0.12,3.42-0.22,7.28,2.14,10.09
		c2.71,3.35,7.51,3.79,11.48,3.09c2.9-0.45,5.54-2.61,6.26-5.51c0.53-2.35,0.52-4.78,0.58-7.18c0.01-10.51,0-21.02,0.01-31.53
		c3.54,0.01,7.09-0.04,10.63,0.04c-0.05,9.25,0,18.51-0.03,27.76c-0.12,4.75,0.02,9.57-1.1,14.22c-1.02,4.19-4.1,7.73-8.01,9.51
		c-5.38,2.51-11.56,2.32-17.33,1.68c-6.19-0.63-12.11-4.8-13.94-10.88c-1.04-3.86-1.13-7.89-1.24-11.85
		C397.48,88.52,397.5,78.36,397.49,68.21"/>
	<path class="st1" d="M450.26,68.21c3.16,0.03,6.33-0.05,9.5,0.02c0.78-0.18,1.13,0.61,1.49,1.12
		c6.86,11.34,13.77,22.65,20.62,33.98c0.05-11.71,0-23.42,0.02-35.13c3.27,0,6.55,0,9.82,0c0.01,17.56,0,35.13,0,52.69
		c-3.53,0.01-7.07,0.01-10.6,0c-7.04-11.42-14-22.88-21.05-34.3c0.01,11.43-0.01,22.86,0.01,34.3c-3.28,0.01-6.56,0.01-9.84,0
		C450.27,103.34,450.24,85.77,450.26,68.21"/>
	<path class="st1" d="M465.61,150.26c1.58-1.6,2.64-4.55,5.32-4.31C469.25,147.44,468.08,150.09,465.61,150.26"/>
	<path class="st1" d="M536.65,146.28c0.45-0.02,1.36-0.04,1.81-0.06c-1.27,1.38-2.58,2.73-3.87,4.1c-0.35,0.01-1.04,0.04-1.39,0.05
		C534.33,148.98,535.5,147.64,536.65,146.28"/>
	<path class="st1" d="M149.3,147.3c4.27-0.04,8.52-0.04,12.79,0c0,0.29,0.01,0.89,0.01,1.18c-1.89,0.02-3.79,0.02-5.68,0.02
		c0.02,6.3,0.01,12.59,0,18.89c-0.35,0-1.06,0-1.41,0c0-6.3-0.02-12.6,0-18.9c-1.9,0-3.81,0-5.71-0.02
		C149.3,148.18,149.3,147.6,149.3,147.3"/>
	<path class="st1" d="M163.59,147.27c0.33,0,0.99,0,1.32,0c0,2.62,0.04,5.25-0.05,7.88c1.24-0.91,2.61-1.84,4.23-1.75
		c2.78-0.09,5.35,2.2,5.47,5c0.16,3,0.02,6,0.05,9.01c-0.34-0.02-1-0.04-1.33-0.05c-0.04-2.83,0.07-5.66-0.03-8.49
		c0.03-2.2-1.9-4.3-4.16-4.18c-2.26-0.12-4.16,1.96-4.14,4.16c-0.09,2.84,0.01,5.68-0.03,8.53c-0.33,0-0.99,0-1.32,0
		C163.59,160.69,163.59,153.98,163.59,147.27"/>
	<path class="st1" d="M207.77,147.25c0.34,0.02,1,0.05,1.33,0.07c0.04,4.59-0.06,9.19,0.03,13.78c0.05,2.77,2.42,5.37,5.26,5.35
		c3.02-0.04,5.5-2.99,5.3-5.95c0.14-2.91-2.31-5.84-5.31-5.79c-1.74-0.11-3.1,1.12-4.47,1.99c-0.12-2.11,2.15-3.04,3.89-3.26
		c2.99-0.35,5.94,1.67,6.86,4.51c1.13,3.1,0.09,7.02-2.78,8.8c-2.41,1.53-5.83,1.23-7.9-0.76c-1.5-1.38-2.27-3.43-2.23-5.45
		C207.76,156.1,207.77,151.67,207.77,147.25"/>
	<path class="st1" d="M244.06,147.26c0.33,0.01,0.99,0.04,1.32,0.05c0,2.61,0.04,5.22-0.06,7.83c1.24-0.89,2.61-1.82,4.22-1.73
		c2.77-0.09,5.34,2.18,5.47,4.97c0.17,3,0.01,6.01,0.06,9.02c-0.33,0-0.99,0-1.32,0c-0.06-2.97,0.11-5.94-0.07-8.9
		c-0.15-2.06-2.01-3.9-4.13-3.79c-2.25-0.12-4.2,1.97-4.14,4.17c-0.08,2.84,0.01,5.67-0.02,8.5c-0.33,0-0.99,0.02-1.32,0.03
		C244.05,160.69,244.05,153.97,244.06,147.26"/>
	<path class="st1" d="M283.77,147.26c0.35,0.01,1.06,0.02,1.41,0.03c0,3-0.01,6,0,9.01h10.68c0.03-3.01,0.01-6.02,0.02-9.02
		c0.36,0,1.09,0,1.46,0v20.11h-1.46c0-3.29-0.01-6.57,0.01-9.86c-3.58-0.01-7.15,0-10.72,0c0,3.29,0,6.57,0,9.86
		c-0.35,0-1.06,0.02-1.41,0.03V147.26z"/>
	<path class="st1" d="M360.77,147.29c0.31-0.01,0.93-0.02,1.24-0.03c0,2.64,0.03,5.28-0.03,7.93c1.28-0.96,2.72-1.92,4.4-1.78
		c2.7-0.02,5.21,2.22,5.32,4.95c0.17,3,0,6.01,0.06,9.02c-0.32,0-0.97,0.01-1.29,0.02c-0.07-2.99,0.13-5.98-0.09-8.96
		c-0.19-2.01-1.96-3.79-4.02-3.74c-2.1-0.17-4,1.6-4.23,3.65c-0.29,3.01-0.04,6.04-0.12,9.06c-0.31-0.01-0.93-0.03-1.24-0.04
		C360.78,160.68,360.78,153.98,360.77,147.29"/>
	<path class="st1" d="M395.46,147.26c0.3,0,0.92,0.02,1.23,0.02c-0.01,2.64,0.02,5.28-0.04,7.92c1.28-0.94,2.7-1.92,4.38-1.79
		c2.72-0.05,5.27,2.2,5.36,4.95c0.13,3.01,0,6.02,0.04,9.02c-0.32,0.01-0.96,0.01-1.29,0.01c-0.06-2.94,0.1-5.89-0.06-8.83
		c-0.13-2.09-1.96-3.95-4.09-3.87c-2.06-0.13-3.93,1.6-4.15,3.62c-0.34,3.01-0.09,6.05-0.15,9.06c-0.31,0.01-0.93,0.01-1.24,0.01
		C395.45,160.69,395.44,153.98,395.46,147.26"/>
	<path class="st1" d="M434.97,147.27h1.43c0.01,3.01-0.01,6.03,0.01,9.04c2.17-0.14,4.88,0.49,6.52-1.33
		c1.88-2.19,2.41-5.16,3.89-7.57c0.38-0.09,1.13-0.25,1.51-0.34c-1.51,3.21-2.38,6.94-5.04,9.42c1.48,0.49,3,1.22,3.74,2.68
		c1.32,2.5,0.83,5.45,0.93,8.16c-0.37,0.02-1.1,0.04-1.47,0.06c-0.2-2.88,0.77-6.44-1.55-8.69c-2.46-1.81-5.71-1.04-8.55-1.19
		c0.02,3.29,0.02,6.58,0.01,9.87c-0.36,0-1.08,0-1.43,0C434.97,160.69,434.95,153.98,434.97,147.27"/>
	<path class="st1" d="M185.74,148.36c0.44,0,1.32,0.01,1.75,0.02c-1.71,1.45-2.84,4.04-5.3,4.23
		C183.29,151.12,184.54,149.76,185.74,148.36"/>
	<path class="st1" d="M221.83,148.57c2.68-0.28,3.74,2.7,5.34,4.29C224.7,152.67,223.52,150.07,221.83,148.57"/>
	<path class="st1" d="M459.74,152.76c1.26-1.35,2.09-4.54,4.44-3.77c1.1,1.13,1.98,2.46,2.89,3.76c-1.83,0-2.62-1.84-3.68-3
		C462.33,150.92,461.57,152.74,459.74,152.76"/>
	<path class="st1" d="M530.25,148.98c0.49,0,0.98,0,1.47,0.01c0.98,1.28,2,2.53,2.93,3.86c-1.84,0.11-2.62-1.77-3.67-2.92
		c-1.06,1.15-1.83,2.98-3.66,2.93C528.24,151.53,529.24,150.25,530.25,148.98"/>
	<path class="st1" d="M352.89,149.99c0.32,0,0.97,0.02,1.29,0.02c0,1.24,0,2.47-0.01,3.71c1.59,0,3.19,0,4.79,0.02
		c-0.01,0.3-0.02,0.9-0.03,1.2c-1.59,0-3.18,0.01-4.77,0.02c0.14,3.21-0.21,6.46,0.18,9.66c0.63,1.94,3.01,1.48,4.61,1.59
		c0,0.29-0.01,0.89-0.01,1.18c-1.65-0.09-3.64,0.32-4.94-0.97c-0.93-0.8-1.15-2.09-1.12-3.26
		C352.88,158.78,352.89,154.39,352.89,149.99"/>
	<path class="st1" d="M194.4,150.67c0.65-1.17,2.2,0.11,1.56,1.08C195.44,153.01,193.32,151.56,194.4,150.67"/>
	<path class="st1" d="M375.18,151.47c0.44-1.29,2.27-1.74,2.39-0.04C377.12,152.68,375.88,152.08,375.18,151.47"/>
	<path class="st1" d="M451.37,150.69c0.64-1.25,2.5,0.22,1.62,1.1C452.36,152.9,450.58,151.7,451.37,150.69"/>
	<path class="st1" d="M178.04,156.69c1.39-2.59,4.65-3.87,7.45-3.04c2.78,0.72,4.77,3.48,4.82,6.32c0.09,2.47,0,4.96,0.02,7.44
		c-0.32,0-0.96-0.02-1.28-0.03c-0.35-3.61,1.05-7.91-1.53-10.93c-1.96-2.47-6.08-2.22-7.84,0.36c-2.61,3.05-1.07,8.37,2.81,9.46
		c2.09,0.72,4.05-0.52,5.58-1.83c-0.01,0.54-0.02,1.07-0.02,1.6c-1.86,1.42-4.33,2.22-6.59,1.29
		C177.31,165.87,175.83,160.31,178.04,156.69"/>
	<path class="st1" d="M224.44,153.72c0.33,0,0.99,0,1.32,0c0,4.56,0,9.12,0,13.68c-0.33,0-0.99,0-1.32-0.01
		C224.43,162.83,224.43,158.28,224.44,153.72"/>
	<path class="st1" d="M229.98,157.89c0.34-3.14,3.89-5.19,6.83-4.29c2.17,0.51,3.89,2.5,3.99,4.74c0.12,3.01,0,6.03,0.04,9.04
		c-0.31,0-0.94,0-1.26,0.01c-0.03-2.65,0.05-5.3-0.02-7.94c-0.02-1.31-0.36-2.67-1.34-3.59c-1.55-1.63-4.48-1.55-5.94,0.17
		c-0.84,0.91-1.14,2.16-1.15,3.37c-0.05,2.67,0.02,5.33-0.01,8c-0.31,0-0.92-0.01-1.23-0.01
		C229.97,164.22,229.79,161.06,229.98,157.89"/>
	<path class="st1" d="M300.85,153.71c0.31,0,0.94,0.02,1.25,0.03c0.03,2.79-0.07,5.58,0.03,8.38c-0.03,2.14,1.71,4.31,3.95,4.26
		c2.17,0.27,4.14-1.57,4.36-3.68c0.26-2.98,0.04-5.99,0.1-8.98c0.31,0,0.92,0,1.22,0.01c0.02,1.15,0.05,2.29,0.13,3.44
		c1.37-0.83,0.49-2.36,0.44-3.56c0.36,0.05,1.07,0.16,1.42,0.2c0.4,1.81-0.09,3.75-1.95,4.47c-0.1,2.66,0.58,5.89-1.65,7.9
		c-2.8,2.9-8.48,1.4-9.19-2.67C300.68,160.27,300.93,156.98,300.85,153.71"/>
	<path class="st1" d="M315.11,157.82c0.39-2.73,3.17-4.71,5.88-4.4c2.59,0.14,4.85,2.36,4.97,4.97c0.18,3,0.02,6,0.06,9
		c-0.34,0-1.01-0.01-1.35-0.02c-0.06-2.99,0.11-5.98-0.07-8.96c-0.16-2.04-2.04-3.83-4.12-3.72c-2.25-0.11-4.18,1.97-4.13,4.18
		c-0.08,2.83,0.02,5.67-0.02,8.51c-0.34,0-1.01,0.01-1.34,0.01C315.06,164.21,314.81,161,315.11,157.82"/>
	<path class="st1" d="M329.64,164.74c-2.59-3.73-0.93-9.85,3.64-11.07c3.75-1.23,7.99,1.64,8.38,5.54c0.22,3.08,0.2,6.19,0.01,9.27
		c-0.25,2.83-2.7,4.97-5.42,5.37h-2.79c-0.85-0.17-1.68-0.34-2.52-0.53l0.21-1.28c2.51,0.59,5.53,1.19,7.68-0.64
		c1.93-1.84,1.62-4.74,1.69-7.18c-0.06-2.72,0.4-5.98-1.81-8.04c-2.03-2.23-5.91-1.85-7.6,0.59c-2.63,3.06-1.06,8.47,2.87,9.48
		c2.13,0.63,4.03-0.69,5.74-1.75c-0.4,0.75-0.47,1.77-1.29,2.21C335.62,168.67,331.41,167.6,329.64,164.74"/>
	<path class="st1" d="M381.37,157.82c0.39-2.69,3.1-4.67,5.78-4.4c2.61,0.1,4.93,2.31,5.06,4.94c0.15,3,0,6.02,0.06,9.02
		c-0.33,0.01-0.98,0.01-1.32,0.02c-0.07-3,0.13-6.01-0.09-9.01c-0.19-2.07-2.12-3.85-4.23-3.7c-2.06-0.03-3.86,1.75-4.01,3.77
		c-0.18,2.97,0,5.96-0.07,8.94c-0.34-0.01-1.01-0.03-1.34-0.04C381.29,164.18,380.99,160.99,381.37,157.82"/>
	<path class="st1" d="M457.18,164.05c-2.18-3.74-0.13-9.23,4.13-10.34c3.12-1.03,6.51,0.48,8.37,3.07
		c-3.33,2.3-6.69,4.57-10.06,6.82c-0.13-0.29-0.4-0.86-0.54-1.15c2.72-2.14,5.74-3.9,8.57-5.91c-1.96-2.12-5.5-2.54-7.74-0.63
		c-2.75,2.12-3,6.67-0.37,8.98c2.55,2.58,7.32,1.72,8.95-1.47c0.65-1.09,0.42-3.07,2.22-2.81c-0.29,1.96-0.92,4-2.5,5.32
		C465.03,168.95,459.18,167.95,457.18,164.05"/>
	<path class="st1" d="M472.85,157.87c0.36-3.02,3.66-5.04,6.55-4.35c2.29,0.42,4.14,2.46,4.29,4.8c0.17,3.02,0.01,6.05,0.06,9.07
		c-0.32,0.01-0.96,0.01-1.28,0.01c-0.07-2.99,0.13-5.99-0.11-8.97c-0.19-2.01-1.97-3.78-4.03-3.72c-2.1-0.15-4,1.61-4.21,3.66
		c-0.29,3-0.05,6.02-0.12,9.03c-0.31,0-0.93,0.01-1.24,0.01C472.83,164.22,472.63,161.04,472.85,157.87"/>
	<path class="st1" d="M495.83,155.64c2.06-2.5,6.07-2.97,8.68-1.06c1.9,1.33,2.92,3.64,2.89,5.93c0.02,4.45-0.01,8.89-0.01,13.34
		h-1.23c-0.14-4.81,0.21-9.63-0.17-14.41c-0.33-3.51-4.61-6.07-7.7-4.05c-3.89,2.19-3.72,8.56,0.32,10.49
		c2.32,1.38,4.84-0.07,6.76-1.43c-0.5,3.2-4.61,3.87-7.14,2.76C493.82,165.44,492.74,159.07,495.83,155.64"/>
	<path class="st1" d="M520.29,153.76c0.34-0.02,1-0.04,1.33-0.05c-0.07,3.16,0.17,6.33-0.11,9.48c-0.35,2.99-3.55,5.05-6.43,4.43
		c-2.41-0.36-4.36-2.53-4.43-4.96c-0.13-2.98,0-5.96-0.04-8.94c0.34,0.01,1.02,0.04,1.36,0.06c0.09,2.95-0.26,5.91,0.02,8.86
		c0.15,2.29,2.44,4.17,4.73,3.76c2.05-0.25,3.57-2.22,3.57-4.24C520.36,159.36,520.27,156.55,520.29,153.76"/>
	<path class="st1" d="M529.1,153.7c4.09-1.41,8.75,1.95,8.88,6.23c0.51,3.95-2.85,7.89-6.88,7.78c-4.04,0.12-7.37-3.83-6.92-7.77
		C524.39,157.13,526.36,154.5,529.1,153.7 M529.25,155.01c-2.05,0.77-3.5,2.81-3.69,4.97c-0.4,3.2,2.25,6.54,5.56,6.47
		c3.87,0.06,6.62-4.46,5.18-7.95C535.39,155.68,532.06,153.89,529.25,155.01"/>
	<path class="st1" d="M542.52,154.85c1.81-1.52,4.29-1.48,6.52-1.47c0,0.34-0.01,1.02-0.01,1.36c-1.77,0.06-3.7-0.11-5.25,0.91
		c-3.25,1.97-3.32,7.37-0.13,9.44c1.57,1.1,3.57,0.95,5.4,1.02c0,0.32,0,0.96,0,1.28c-2.07,0.01-4.33,0.15-6.11-1.1
		C539.11,163.87,538.92,157.57,542.52,154.85"/>
	<path class="st1" d="M194.5,153.71c0.32,0,0.97,0.03,1.29,0.04v13.61c-0.32,0.01-0.97,0.04-1.29,0.05
		C194.49,162.84,194.5,158.28,194.5,153.71"/>
	<path class="st1" d="M375.83,153.72c0.34,0,1.01,0,1.34,0c0,4.55,0.01,9.11-0.01,13.66h-1.34
		C375.82,162.84,375.82,158.28,375.83,153.72"/>
	<path class="st1" d="M451.54,153.72c0.34,0,1.01,0,1.34,0c0,4.55,0.01,9.1,0,13.65c-0.34,0.01-1.01,0.01-1.34,0.01
		C451.53,162.84,451.53,158.28,451.54,153.72"/>
	<path class="st1" d="M266.47,159.9h5.62c0,0.34,0,1,0,1.33c-1.88,0.01-3.76,0.01-5.63,0C266.46,160.9,266.47,160.24,266.47,159.9"
		/>
	<path class="st1" d="M417.89,159.9c1.86,0,3.72,0,5.59,0c0,0.33,0.01,0.99,0.01,1.32c-1.88,0.01-3.75,0.01-5.62,0
		C417.88,160.9,417.89,160.24,417.89,159.9"/>
	<path class="st1" d="M376.25,168.92c1.22-0.4,1.8,1.78,0.45,1.89C375.5,171.24,375.01,169.08,376.25,168.92"/>
</g>
</svg>
