<svg width="80" height="80" viewBox="0 0 80 80" fill="none" xmlns="http://www.w3.org/2000/svg">
<path d="M68.2844 11.7158C60.7292 4.16078 50.6844 0 40 0C29.3156 0 19.2708 4.16078 11.7156 11.7158C4.16078 19.2708 0 29.3156 0 40C0 50.6844 4.16078 60.7292 11.7156 68.2842C19.2708 75.8392 29.3156 80 40 80C50.6844 80 60.7292 75.8392 68.2844 68.2842C75.8392 60.7292 80 50.6844 80 40C80 29.3156 75.8392 19.2708 68.2844 11.7158ZM40 75.3125C29.5517 75.3125 20.1505 70.7497 13.6794 63.5139C17.6911 52.8784 27.9606 45.3125 40 45.3125C32.2334 45.3125 25.9375 39.0166 25.9375 31.25C25.9375 23.4834 32.2334 17.1875 40 17.1875C47.7666 17.1875 54.0625 23.4834 54.0625 31.25C54.0625 39.0166 47.7666 45.3125 40 45.3125C52.0394 45.3125 62.3089 52.8784 66.3206 63.5139C59.8495 70.7497 50.4483 75.3125 40 75.3125Z" fill="black" style="fill:black;fill-opacity:1;"/>
</svg>
