<svg width="22" height="22" viewBox="0 0 22 22" fill="none" xmlns="http://www.w3.org/2000/svg">
<path d="M10.5245 3.08156C10.6741 2.6209 11.3259 2.6209 11.4755 3.08156L12.7696 7.06434C12.9704 7.68237 13.5464 8.10081 14.1962 8.10081H18.3839C18.8683 8.10081 19.0697 8.72062 18.6778 9.00532L15.2899 11.4668C14.7641 11.8488 14.5442 12.5258 14.745 13.1439L16.0391 17.1266C16.1887 17.5873 15.6615 17.9704 15.2696 17.6857L11.8817 15.2242C11.3559 14.8422 10.6441 14.8422 10.1183 15.2242L6.73037 17.6857C6.33851 17.9704 5.81127 17.5873 5.96095 17.1266L7.25503 13.1439C7.45584 12.5258 7.23585 11.8488 6.71012 11.4668L3.32217 9.00532C2.93031 8.72062 3.1317 8.10081 3.61606 8.10081H7.8038C8.45364 8.10081 9.02958 7.68237 9.23039 7.06434L10.5245 3.08156Z" fill="white" stroke="#FFD912" style="fill:white;fill-opacity:1;stroke:#FFD912;stroke:color(display-p3 1.0000 0.8513 0.0708);stroke-opacity:1;"/>
</svg>
