<svg width="22" height="22" viewBox="0 0 22 22" fill="none" xmlns="http://www.w3.org/2000/svg">
<path d="M10.0489 2.92705C10.3483 2.00574 11.6517 2.00574 11.9511 2.92705L13.2451 6.90983C13.379 7.32185 13.763 7.60081 14.1962 7.60081H18.3839C19.3527 7.60081 19.7554 8.84043 18.9717 9.40983L15.5838 11.8713C15.2333 12.126 15.0866 12.5773 15.2205 12.9894L16.5146 16.9721C16.8139 17.8934 15.7595 18.6596 14.9757 18.0902L11.5878 15.6287C11.2373 15.374 10.7627 15.374 10.4122 15.6287L7.02426 18.0902C6.24054 18.6596 5.18607 17.8934 5.48542 16.9721L6.7795 12.9894C6.91338 12.5773 6.76672 12.126 6.41623 11.8713L3.02827 9.40983C2.24456 8.84043 2.64734 7.60081 3.61606 7.60081H7.8038C8.23703 7.60081 8.62099 7.32185 8.75486 6.90983L10.0489 2.92705Z" fill="#FFD912" style="fill:#FFD912;fill:color(display-p3 1.0000 0.8513 0.0708);fill-opacity:1;"/>
</svg>
