<svg width="20" height="20" viewBox="0 0 20 20" fill="none" xmlns="http://www.w3.org/2000/svg">
<g id="vuesax/outline/trash">
<g id="trash">
<path id="Vector" d="M17.4991 5.60937C17.4824 5.60937 17.4574 5.60937 17.4324 5.60937C13.0241 5.1677 8.62408 5.00104 4.26574 5.4427L2.56574 5.60937C2.21574 5.6427 1.90741 5.3927 1.87408 5.0427C1.84074 4.6927 2.09074 4.3927 2.43241 4.35937L4.13241 4.1927C8.56574 3.7427 13.0574 3.9177 17.5574 4.35937C17.8991 4.3927 18.1491 4.70104 18.1157 5.0427C18.0907 5.3677 17.8157 5.60937 17.4991 5.60937Z" fill="#353535" style="fill:#353535;fill-opacity:1;"/>
<path id="Vector_2" d="M7.08265 4.76797C7.04932 4.76797 7.01598 4.76797 6.97432 4.75964C6.64098 4.7013 6.40765 4.3763 6.46598 4.04297L6.64932 2.9513C6.78265 2.1513 6.96598 1.04297 8.90765 1.04297H11.091C13.041 1.04297 13.2243 2.19297 13.3493 2.95964L13.5326 4.04297C13.591 4.38464 13.3576 4.70964 13.0243 4.75964C12.6826 4.81797 12.3576 4.58464 12.3076 4.2513L12.1243 3.16797C12.0076 2.44297 11.9826 2.3013 11.0993 2.3013H8.91598C8.03265 2.3013 8.01598 2.41797 7.89098 3.15964L7.69932 4.24297C7.64932 4.5513 7.38265 4.76797 7.08265 4.76797Z" fill="#353535" style="fill:#353535;fill-opacity:1;"/>
<path id="Vector_3" d="M12.676 18.9596H7.32597C4.41764 18.9596 4.30097 17.3513 4.20931 16.0513L3.66764 7.65962C3.64264 7.31795 3.90931 7.01795 4.25097 6.99295C4.60097 6.97628 4.89264 7.23462 4.91764 7.57628L5.45931 15.968C5.55097 17.2346 5.58431 17.7096 7.32597 17.7096H12.676C14.426 17.7096 14.4593 17.2346 14.5426 15.968L15.0843 7.57628C15.1093 7.23462 15.4093 6.97628 15.751 6.99295C16.0926 7.01795 16.3593 7.30962 16.3343 7.65962L15.7926 16.0513C15.701 17.3513 15.5843 18.9596 12.676 18.9596Z" fill="#353535" style="fill:#353535;fill-opacity:1;"/>
<path id="Vector_4" d="M11.3824 14.375H8.60742C8.26576 14.375 7.98242 14.0917 7.98242 13.75C7.98242 13.4083 8.26576 13.125 8.60742 13.125H11.3824C11.7241 13.125 12.0074 13.4083 12.0074 13.75C12.0074 14.0917 11.7241 14.375 11.3824 14.375Z" fill="#353535" style="fill:#353535;fill-opacity:1;"/>
<path id="Vector_5" d="M12.0827 11.043H7.91602C7.57435 11.043 7.29102 10.7596 7.29102 10.418C7.29102 10.0763 7.57435 9.79297 7.91602 9.79297H12.0827C12.4243 9.79297 12.7077 10.0763 12.7077 10.418C12.7077 10.7596 12.4243 11.043 12.0827 11.043Z" fill="#353535" style="fill:#353535;fill-opacity:1;"/>
</g>
</g>
</svg>
