<svg width="20" height="20" viewBox="0 0 20 20" fill="none" xmlns="http://www.w3.org/2000/svg">
<path fill-rule="evenodd" clip-rule="evenodd" d="M14.8463 3.7263C14.7796 3.7263 14.7129 3.70964 14.6546 3.6763C13.0546 2.8513 11.6713 2.5013 10.0129 2.5013C8.36292 2.5013 6.79625 2.89297 5.37125 3.6763C5.17125 3.78464 4.92125 3.70964 4.80459 3.50964C4.69625 3.30964 4.77125 3.0513 4.97125 2.94297C6.52125 2.1013 8.22125 1.66797 10.0129 1.66797C11.7879 1.66797 13.3379 2.05964 15.0379 2.93464C15.2463 3.04297 15.3213 3.29297 15.2129 3.49297C15.1379 3.64297 14.9963 3.7263 14.8463 3.7263ZM2.92125 8.1013C2.83792 8.1013 2.75459 8.0763 2.67959 8.0263C2.48792 7.89297 2.44625 7.63464 2.57959 7.44297C3.40459 6.2763 4.45459 5.35964 5.70459 4.71797C8.32125 3.36797 11.6713 3.35964 14.2963 4.70964C15.5463 5.3513 16.5963 6.25964 17.4213 7.41797C17.5546 7.6013 17.5129 7.86797 17.3213 8.0013C17.1296 8.13464 16.8713 8.09297 16.7379 7.9013C15.9879 6.8513 15.0379 6.0263 13.9129 5.4513C11.5213 4.2263 8.46292 4.2263 6.07959 5.45964C4.94625 6.04297 3.99625 6.8763 3.24625 7.9263C3.17959 8.04297 3.05459 8.1013 2.92125 8.1013ZM7.83792 18.0346C7.91292 18.118 8.02125 18.1596 8.12959 18.1596C8.23792 18.1596 8.34625 18.118 8.43792 18.0346C8.59625 17.868 8.59625 17.6096 8.43792 17.443C7.79625 16.793 7.42958 16.3846 6.89625 15.4263C6.38792 14.5263 6.12125 13.418 6.12125 12.218C6.12125 10.2013 7.86292 8.55964 10.0046 8.55964C12.1463 8.55964 13.8879 10.2013 13.8879 12.218C13.8879 12.4513 14.0713 12.6346 14.3046 12.6346C14.5379 12.6346 14.7213 12.4513 14.7213 12.218C14.7213 9.74297 12.6046 7.7263 10.0046 7.7263C7.40458 7.7263 5.28792 9.74297 5.28792 12.218C5.28792 13.5596 5.58792 14.8096 6.16292 15.8346C6.72125 16.843 7.11292 17.3096 7.83792 18.0346ZM14.1046 16.618C13.1129 16.618 12.2379 16.368 11.5213 15.8763C10.2796 15.0346 9.53792 13.668 9.53792 12.218C9.53792 11.9846 9.72125 11.8013 9.95459 11.8013C10.1879 11.8013 10.3713 11.9846 10.3713 12.218C10.3713 13.393 10.9713 14.5013 11.9879 15.1846C12.5796 15.5846 13.2713 15.7763 14.1046 15.7763C14.3046 15.7763 14.6379 15.7513 14.9713 15.693C15.1963 15.6513 15.4129 15.8013 15.4546 16.0346C15.4963 16.2596 15.3463 16.4763 15.1129 16.518C14.6379 16.6096 14.2213 16.618 14.1046 16.618ZM12.3213 18.318C12.3546 18.3263 12.3963 18.3346 12.4296 18.3346C12.6046 18.3346 12.7796 18.2096 12.8213 18.018C12.8796 17.8013 12.7546 17.568 12.5296 17.5096C11.3546 17.1846 10.5963 16.7513 9.80459 15.968C8.79625 14.968 8.24625 13.6346 8.24625 12.2096C8.24625 11.318 9.02125 10.593 9.97959 10.593C10.9379 10.593 11.7129 11.318 11.7129 12.2096C11.7129 13.5596 12.8629 14.6596 14.2796 14.6596C15.6963 14.6596 16.8463 13.5596 16.8463 12.2096C16.8463 8.60964 13.7629 5.68464 9.97125 5.68464C7.27959 5.68464 4.82125 7.19297 3.71292 9.51797C3.33792 10.3096 3.14625 11.218 3.14625 12.218C3.14625 13.343 3.34625 14.4263 3.75459 15.518C3.82959 15.7263 4.07125 15.843 4.28792 15.7596C4.50459 15.6846 4.61292 15.443 4.52959 15.2263C4.02959 13.893 3.97125 12.868 3.97125 12.218C3.97125 11.3513 4.13792 10.5596 4.46292 9.88464C5.43792 7.84297 7.60459 6.5263 9.97125 6.5263C13.3046 6.5263 16.0129 9.0763 16.0129 12.218C16.0129 13.1096 15.2379 13.8346 14.2796 13.8346C13.3213 13.8346 12.5463 13.1096 12.5463 12.218C12.5463 10.868 11.3963 9.76797 9.97959 9.76797C8.56292 9.76797 7.41292 10.868 7.41292 12.218C7.41292 13.868 8.05459 15.4096 9.22125 16.568C10.1296 17.4596 10.9963 17.9513 12.3213 18.318Z" fill="black" style="fill:black;fill-opacity:1;"/>
</svg>
