<svg width="20" height="21" viewBox="0 0 20 21" fill="none" xmlns="http://www.w3.org/2000/svg">
<path fill-rule="evenodd" clip-rule="evenodd" d="M14.213 0.734375C17.6747 0.734375 20 2.89711 20 6.11559V15.3532C20 18.5998 17.7462 20.7113 14.2582 20.7314L5.78805 20.7344C2.32645 20.7344 0 18.5716 0 15.3532V6.11559C0 2.86798 2.25379 0.757479 5.74181 0.738393L14.2119 0.734375H14.213ZM14.213 2.24116L5.74732 2.24517C3.18415 2.25924 1.65153 3.70575 1.65153 6.11559V15.3532C1.65153 17.7791 3.19846 19.2276 5.78695 19.2276L14.2527 19.2246C16.8159 19.2105 18.3485 17.762 18.3485 15.3532V6.11559C18.3485 3.68967 16.8026 2.24116 14.213 2.24116ZM14.0007 14.269C14.4565 14.269 14.8264 14.6065 14.8264 15.0224C14.8264 15.4382 14.4565 15.7758 14.0007 15.7758H6.05131C5.59549 15.7758 5.22554 15.4382 5.22554 15.0224C5.22554 14.6065 5.59549 14.269 6.05131 14.269H14.0007ZM14.0007 10.0636C14.4565 10.0636 14.8264 10.4011 14.8264 10.8169C14.8264 11.2328 14.4565 11.5703 14.0007 11.5703H6.05131C5.59549 11.5703 5.22554 11.2328 5.22554 10.8169C5.22554 10.4011 5.59549 10.0636 6.05131 10.0636H14.0007ZM9.08428 5.86788C9.54011 5.86788 9.91005 6.20539 9.91005 6.62127C9.91005 7.03714 9.54011 7.37466 9.08428 7.37466H6.05098C5.59516 7.37466 5.22521 7.03714 5.22521 6.62127C5.22521 6.20539 5.59516 5.86788 6.05098 5.86788H9.08428Z" fill="#BC2426" style="fill:#BC2426;fill:color(display-p3 0.7373 0.1412 0.1490);fill-opacity:1;"/>
</svg>
