<svg width="20" height="20" viewBox="0 0 20 20" fill="none" xmlns="http://www.w3.org/2000/svg">
<g id="Group">
<path id="Vector" d="M10.4772 8.63186C12.2961 9.02199 14.1045 7.7818 14.5163 5.86184C14.9281 3.94187 13.7873 2.06917 11.9684 1.67904C10.1494 1.28892 8.34099 2.5291 7.9292 4.44907C7.51742 6.36903 8.65817 8.24174 10.4772 8.63186Z" stroke="black" style="stroke:black;stroke-opacity:1;" stroke-width="1.5" stroke-linecap="round" stroke-linejoin="round"/>
<path id="Vector_2" d="M4.08262 16.3506C5.9016 16.7407 7.70999 15.5006 8.12177 13.5806C8.53356 11.6606 7.3928 9.78792 5.57383 9.39779C3.75485 9.00767 1.94646 10.2478 1.53467 12.1678C1.12288 14.0878 2.26364 15.9605 4.08262 16.3506Z" stroke="black" style="stroke:black;stroke-opacity:1;" stroke-width="1.5" stroke-linecap="round" stroke-linejoin="round"/>
<path id="Vector_3" d="M13.1402 18.292C14.9592 18.6821 16.7676 17.442 17.1794 15.522C17.5912 13.602 16.4504 11.7293 14.6314 11.3392C12.8125 10.9491 11.0041 12.1893 10.5923 14.1092C10.1805 16.0292 11.3213 17.9019 13.1402 18.292Z" stroke="black" style="stroke:black;stroke-opacity:1;" stroke-width="1.5" stroke-linecap="round" stroke-linejoin="round"/>
</g>
</svg>
