<svg width="24" height="24" viewBox="0 0 24 24" fill="none" xmlns="http://www.w3.org/2000/svg">
<mask id="mask0_942_31840" style="mask-type:alpha" maskUnits="userSpaceOnUse" x="2" y="0" width="20" height="24">
<path d="M18.0001 6C18.0001 9.31371 15.3138 12 12.0001 12C8.68634 12 6.00005 9.31371 6.00005 6C6.00005 2.68629 8.68634 0 12.0001 0C15.3138 0 18.0001 2.68629 18.0001 6Z" fill="#006FFD" style="fill:#006FFD;fill:color(display-p3 0.0000 0.4353 0.9922);fill-opacity:1;"/>
<path d="M2 20.0005C2 16.6868 4.68629 14.0005 8 14.0005H16C19.3137 14.0005 22 16.6868 22 20.0005V21.0005C22 22.6574 20.6569 24.0005 19 24.0005H5C3.34315 24.0005 2 22.6574 2 21.0005V20.0005Z" fill="#006FFD" style="fill:#006FFD;fill:color(display-p3 0.0000 0.4353 0.9922);fill-opacity:1;"/>
</mask>
<g mask="url(#mask0_942_31840)">
<rect width="24" height="24" fill="#CA1F24" style="fill:#CA1F24;fill:color(display-p3 0.7922 0.1216 0.1412);fill-opacity:1;"/>
</g>
</svg>
